<svg width="24" height="24" viewBox="0 0 24 24" fill="none" xmlns="http://www.w3.org/2000/svg">
<g id="fi-rr-cross-circle 1" clip-path="url(#clip0_489_1638)">
<path id="Vector" d="M16 7.99994C15.8124 7.81247 15.5581 7.70715 15.293 7.70715C15.0278 7.70715 14.7735 7.81247 14.586 7.99994L11.9999 10.5859L9.41395 7.99994C9.22535 7.81778 8.97275 7.71699 8.71055 7.71927C8.44835 7.72154 8.19754 7.82671 8.01213 8.01212C7.82672 8.19753 7.72155 8.44834 7.71928 8.71054C7.717 8.97274 7.81779 9.22534 7.99995 9.41394L10.586 11.9999L7.99995 14.5859C7.81779 14.7745 7.717 15.0271 7.71928 15.2893C7.72155 15.5515 7.82672 15.8024 8.01213 15.9878C8.19754 16.1732 8.44835 16.2783 8.71055 16.2806C8.97275 16.2829 9.22535 16.1821 9.41395 15.9999L11.9999 13.4139L14.586 15.9999C14.7746 16.1821 15.0272 16.2829 15.2894 16.2806C15.5515 16.2783 15.8024 16.1732 15.9878 15.9878C16.1732 15.8024 16.2783 15.5515 16.2806 15.2893C16.2829 15.0271 16.1821 14.7745 16 14.5859L13.4139 11.9999L16 9.41394C16.1874 9.22641 16.2927 8.9721 16.2927 8.70694C16.2927 8.44178 16.1874 8.18747 16 7.99994Z" fill="white"/>
<path id="Vector_2" d="M12 0C9.62663 0 7.30655 0.703788 5.33316 2.02236C3.35977 3.34094 1.8217 5.21509 0.913451 7.4078C0.00519943 9.60051 -0.232441 12.0133 0.230582 14.3411C0.693605 16.6689 1.83649 18.8071 3.51472 20.4853C5.19295 22.1635 7.33115 23.3064 9.65892 23.7694C11.9867 24.2324 14.3995 23.9948 16.5922 23.0866C18.7849 22.1783 20.6591 20.6402 21.9776 18.6668C23.2962 16.6935 24 14.3734 24 12C23.9966 8.81846 22.7312 5.76821 20.4815 3.51852C18.2318 1.26883 15.1815 0.00344108 12 0ZM12 22C10.0222 22 8.08879 21.4135 6.4443 20.3147C4.79981 19.2159 3.51809 17.6541 2.76121 15.8268C2.00433 13.9996 1.8063 11.9889 2.19215 10.0491C2.578 8.10929 3.53041 6.32746 4.92894 4.92893C6.32746 3.53041 8.10929 2.578 10.0491 2.19215C11.9889 1.8063 13.9996 2.00433 15.8268 2.7612C17.6541 3.51808 19.2159 4.79981 20.3147 6.4443C21.4135 8.08879 22 10.0222 22 12C21.9971 14.6513 20.9426 17.1931 19.0679 19.0679C17.1931 20.9426 14.6513 21.9971 12 22Z" fill="white"/>
</g>
<defs>
<clipPath id="clip0_489_1638">
<rect width="24" height="24" fill="white"/>
</clipPath>
</defs>
</svg>
