<svg width="120" height="23" viewBox="0 0 120 23" fill="none" xmlns="http://www.w3.org/2000/svg">
<g id="Group">
<g id="Group_2">
<path id="Vector" d="M31.0316 17.3088C30.1186 16.7806 29.4066 16.0534 28.8954 15.1252C28.3842 14.197 28.1296 13.1368 28.1296 11.9445C28.1296 10.7523 28.3842 9.69402 28.8954 8.76582C29.4046 7.83762 30.1166 7.11438 31.0316 6.59411C31.9446 6.07385 32.9888 5.81372 34.1604 5.81372C35.5607 5.81372 36.7939 6.19406 37.8601 6.95672C38.9262 7.71741 39.6263 8.73232 39.9605 9.99947H38.6139C38.234 9.07916 37.6512 8.36182 36.8675 7.84944C36.0838 7.33706 35.1808 7.08087 34.1604 7.08087C33.2474 7.08087 32.4319 7.28386 31.7159 7.69179C30.9998 8.09972 30.4448 8.6732 30.049 9.41221C29.6532 10.1512 29.4543 10.9966 29.4543 11.9465C29.4543 12.8964 29.6512 13.7418 30.049 14.4808C30.4448 15.2198 30.9998 15.7973 31.7159 16.2111C32.4319 16.6269 33.2454 16.8338 34.1604 16.8338C35.2425 16.8338 36.1813 16.554 36.9809 15.9963C37.7805 15.4386 38.3474 14.6759 38.6835 13.7103H40.0759C39.68 15.0839 38.956 16.1579 37.9058 16.9343C36.8556 17.7108 35.6065 18.099 34.1604 18.099C32.9869 18.099 31.9446 17.8369 31.0316 17.3088Z" fill="white"/>
<path id="Vector_2" d="M43.0547 17.0484C42.2551 16.4217 41.8553 15.5743 41.8553 14.5022C41.8553 13.4617 42.2213 12.636 42.9513 12.0251C43.6812 11.4142 44.6559 11.1087 45.8752 11.1087H51.0825V10.2712C51.0825 9.28976 50.7504 8.50542 50.088 7.91816C49.4256 7.33089 48.5465 7.03529 47.4505 7.03529C46.5674 7.03529 45.7976 7.24221 45.1432 7.65802C44.4888 8.07384 44.0393 8.63549 43.7966 9.34494H42.45C42.7384 8.25908 43.3292 7.39789 44.2203 6.7653C45.1114 6.13074 46.1795 5.81543 47.4286 5.81543C48.4033 5.81543 49.2665 6.00067 50.0204 6.36919C50.7742 6.73968 51.359 7.256 51.7787 7.91816C52.1984 8.58228 52.4072 9.34297 52.4072 10.2042V17.8071H51.3113L51.174 15.7931C50.6569 16.5025 49.9786 17.0444 49.1412 17.4228C48.3038 17.7992 47.359 17.9884 46.3088 17.9884C44.9403 17.9864 43.8543 17.6731 43.0547 17.0484ZM44.0373 16.1754C44.6081 16.5971 45.3819 16.8099 46.3545 16.8099C47.2536 16.8099 48.0631 16.6365 48.7872 16.2897C49.5112 15.9428 50.0781 15.46 50.4878 14.8412C50.8995 14.2224 51.1044 13.5287 51.1044 12.7602V12.2616H45.9189C45.1114 12.2616 44.453 12.4645 43.9438 12.8725C43.4326 13.2804 43.178 13.8164 43.178 14.4786C43.182 15.188 43.4664 15.7536 44.0373 16.1754Z" fill="white"/>
<path id="Vector_3" d="M55.9489 6.10718H57.0687L57.206 8.73214C57.6018 7.84336 58.1548 7.18318 58.8629 6.7516C59.571 6.32199 60.4661 6.10718 61.5461 6.10718H62.5287V7.32901H61.5004C60.1757 7.32901 59.1394 7.7468 58.3935 8.58434C57.6476 9.42188 57.2736 10.7009 57.2736 12.4193V17.8052H55.9489V6.10718Z" fill="white"/>
<path id="Vector_4" d="M64.9468 1.06018H66.2715V17.8052H64.9468V1.06018Z" fill="white"/>
<path id="Vector_5" d="M69.3325 21.0864H70.3151C70.8939 21.0864 71.3474 21.0372 71.6736 20.9386C71.9998 20.8401 72.2703 20.6667 72.4851 20.4184C72.698 20.1701 72.9108 19.7877 73.1236 19.2754L73.786 17.6239L68.1669 6.10522H69.6507L72.4374 11.8754L74.4702 16.0395L76.1609 11.8754L78.5597 6.10522H79.952L74.3111 19.774C74.0366 20.4519 73.7362 20.9761 73.408 21.3466C73.0798 21.7171 72.688 21.9732 72.2325 22.1151C71.775 22.259 71.1823 22.3299 70.4503 22.3299H69.3305V21.0864H69.3325Z" fill="white"/>
<path id="Vector_6" d="M85.3257 16.7766C84.6713 16.0908 84.3431 15.0838 84.3431 13.7555V7.30546H81.7613V6.10728H83.269C83.7106 6.10728 84.0149 6.03633 84.182 5.89247C84.3491 5.74861 84.4565 5.45892 84.5022 5.02143L84.6156 3.23401H85.6658V6.10728H89.7533V7.30546H85.6658V13.7102C85.6658 14.6759 85.8747 15.3892 86.2944 15.8484C86.7141 16.3096 87.3645 16.5382 88.2476 16.5382H89.9144V17.8053H88.2019C86.9388 17.8053 85.9801 17.4624 85.3257 16.7766Z" fill="white"/>
<path id="Vector_7" d="M92.3247 1.94309C92.5455 1.71646 92.8378 1.60413 93.2038 1.60413C93.5698 1.60413 93.8622 1.71843 94.083 1.94309C94.3038 2.16774 94.4152 2.44758 94.4152 2.78063C94.4152 3.12747 94.3038 3.4152 94.083 3.63986C93.8622 3.86451 93.5698 3.97881 93.2038 3.97881C92.8378 3.97881 92.5455 3.86649 92.3247 3.63986C92.1039 3.41323 91.9925 3.12747 91.9925 2.78063C91.9945 2.44758 92.1039 2.16774 92.3247 1.94309ZM92.5415 6.10716H93.8662V17.8072H92.5415V6.10716Z" fill="white"/>
<path id="Vector_8" d="M99.5307 17.3088C98.6177 16.7806 97.9056 16.0534 97.3945 15.1252C96.8833 14.197 96.6287 13.1368 96.6287 11.9445C96.6287 10.7523 96.8833 9.69402 97.3945 8.76582C97.9037 7.83762 98.6157 7.11438 99.5307 6.59411C100.444 6.07385 101.488 5.81372 102.659 5.81372C104.06 5.81372 105.293 6.19406 106.359 6.95672C107.425 7.71741 108.125 8.73232 108.46 9.99947H107.113C106.733 9.07916 106.15 8.36182 105.367 7.84944C104.583 7.33706 103.68 7.08087 102.659 7.08087C101.747 7.08087 100.931 7.28386 100.215 7.69179C99.4989 8.09972 98.9439 8.6732 98.5481 9.41221C98.1523 10.1512 97.9534 10.9966 97.9534 11.9465C97.9534 12.8964 98.1503 13.7418 98.5481 14.4808C98.9439 15.2198 99.4989 15.7973 100.215 16.2111C100.931 16.6269 101.745 16.8338 102.659 16.8338C103.742 16.8338 104.68 16.554 105.48 15.9963C106.28 15.4386 106.846 14.6759 107.183 13.7103H108.575C108.179 15.0839 107.455 16.1579 106.405 16.9343C105.355 17.7108 104.106 18.099 102.659 18.099C101.488 18.099 100.444 17.8369 99.5307 17.3088Z" fill="white"/>
<path id="Vector_9" d="M111.76 17.0703C110.869 16.3845 110.402 15.4524 110.356 14.2759H111.659C111.735 15.1055 112.089 15.75 112.721 16.2111C113.354 16.6722 114.233 16.9008 115.359 16.9008C116.395 16.9008 117.209 16.7176 117.803 16.3471C118.398 15.9766 118.694 15.4681 118.694 14.8198C118.694 14.201 118.402 13.7004 117.815 13.3142C117.228 12.9299 116.311 12.6323 115.062 12.4195C113.525 12.1633 112.393 11.7593 111.671 11.2095C110.947 10.6577 110.587 9.9305 110.587 9.02595C110.587 8.03075 110.987 7.24641 111.786 6.67294C112.586 6.09947 113.678 5.81372 115.064 5.81372C116.465 5.81372 117.58 6.12706 118.41 6.75374C119.239 7.38042 119.701 8.25147 119.792 9.36688H118.468C118.406 8.59831 118.084 8.00907 117.497 7.60114C116.91 7.19321 116.101 6.99022 115.064 6.99022C114.09 6.99022 113.32 7.17547 112.757 7.54399C112.194 7.91448 111.912 8.41503 111.912 9.0496C111.912 9.62307 112.186 10.0862 112.735 10.4409C113.284 10.7956 114.211 11.0932 115.522 11.3356C118.505 11.8933 119.999 13.0639 119.999 14.8434C119.999 15.8248 119.577 16.6131 118.732 17.2083C117.887 17.8034 116.757 18.101 115.341 18.101C113.843 18.099 112.652 17.7581 111.76 17.0703Z" fill="white"/>
</g>
<g id="Group_3">
<g id="Group_4">
<g id="Group_5">
<path id="Vector_10" d="M10.0103 22.6808V19.2498C10.0103 18.5758 10.2072 17.9472 10.5513 17.4171C10.5553 17.4111 10.5592 17.4033 10.5652 17.3973H6.93141V21.1023H6.93339V22.6808H5.33429V19.1611C5.33429 17.3126 6.84588 15.8149 8.71151 15.8149H12.391L12.3771 16.01C12.7172 15.8996 13.0792 15.8385 13.4551 15.8385C13.9563 15.8385 14.4337 15.945 14.8673 16.1381C15.0204 16.2051 15.1656 16.2859 15.3048 16.3746C15.7205 16.6367 16.0785 16.9894 16.345 17.3993C16.6951 17.9314 16.898 18.5679 16.898 19.2498V21.1023H20.6372V17.3973H18.7696C17.5484 17.3973 16.4743 16.7648 15.8657 15.8149C15.8637 15.8129 15.8617 15.809 15.8597 15.807C15.9433 15.8129 16.0288 15.8149 16.1143 15.8149H22.2323V22.6827H15.3028V19.2498C15.3028 18.2014 14.4058 17.352 13.3298 17.423C12.3473 17.488 11.6074 18.3393 11.6074 19.3148V22.6827" fill="#6BA690"/>
<path id="Vector_11" d="M16.902 0.00393922V6.86983H15.2751V5.28934H15.3049V1.58444H12.224V3.43492C12.224 4.10889 12.0271 4.73755 11.683 5.26766C11.4185 5.68151 11.0625 6.03623 10.6468 6.30031C10.1098 6.64715 9.46735 6.84816 8.78116 6.84816C8.10095 6.84816 7.46648 6.65306 6.93145 6.31213C6.51377 6.05003 6.15775 5.69924 5.89124 5.28737C5.54118 4.75528 5.33632 4.11678 5.33632 3.43492V1.58444C4.30406 1.58444 3.37125 1.99828 2.69302 2.67029C2.01679 3.34032 1.59712 4.26458 1.59712 5.28737V5.28934H3.46672C3.58606 5.28934 3.70142 5.29525 3.81479 5.30708C3.81876 5.3051 3.82075 5.3051 3.82274 5.30708C3.87843 5.31299 3.93412 5.32087 3.98981 5.32876C4.04749 5.33664 4.10318 5.34846 4.16086 5.35831C4.21655 5.3662 4.27224 5.37999 4.32793 5.39576C4.32992 5.39379 4.32992 5.39576 4.33191 5.39576C4.3876 5.41152 4.43931 5.42532 4.49102 5.44305C4.54274 5.46079 4.59644 5.47853 4.64815 5.49429C4.70782 5.51597 4.76749 5.53962 4.82517 5.56327C4.86296 5.581 4.89876 5.59874 4.93655 5.6145C4.98428 5.63618 5.03002 5.65983 5.07776 5.68348C5.11754 5.70516 5.15533 5.72683 5.19312 5.74851C5.25676 5.78595 5.32041 5.82143 5.38207 5.86281C5.38604 5.86478 5.39002 5.86873 5.39599 5.8707C5.43378 5.89434 5.46958 5.91996 5.50538 5.94755C6.35665 6.56832 6.90759 7.56943 6.90759 8.69667V10.5491H10.4002V12.1316H8.77719C8.7036 12.1316 8.62603 12.1296 8.55443 12.1237C8.48282 12.1198 8.40923 12.1119 8.33763 12.104C8.19443 12.0863 8.0552 12.0606 7.91598 12.0232C7.91399 12.0212 7.91399 12.0232 7.91399 12.0232C7.91399 12.0232 7.91399 12.0212 7.912 12.0232C7.86625 12.0133 7.8205 11.9995 7.77476 11.9838C7.73299 11.97 7.69321 11.9582 7.65145 11.9444C7.64548 11.9424 7.63753 11.9404 7.63156 11.9385C7.58979 11.9227 7.54802 11.9089 7.50625 11.8912C7.4625 11.8734 7.41874 11.8557 7.37498 11.836C7.33322 11.8163 7.28946 11.7966 7.24769 11.7769C6.90361 11.6113 6.59532 11.3906 6.32681 11.1246C5.7003 10.5038 5.31246 9.64457 5.31246 8.69667C5.31246 7.6857 4.48704 6.86589 3.46473 6.86589H0V5.11198C0 2.28995 2.30916 0 5.15931 0H6.93145V3.43098C6.93145 4.48136 7.82846 5.32678 8.90448 5.25781C9.88304 5.19475 10.6249 4.3434 10.6249 3.37185V0.00197262H16.902V0.00393922Z" fill="#6BA690"/>
<path id="Vector_12" d="M8.56292 15.8484V17.4308C7.64597 17.5392 6.93388 18.3117 6.93388 19.2478V22.6808H4.45552C1.99704 22.6808 0.00201416 20.7042 0.00201416 18.2684V15.8129H3.46695C4.52513 15.8129 5.38242 14.9241 5.31081 13.858C5.24517 12.8844 4.3859 12.1513 3.40131 12.1513H0.00201416V8.22375H1.59724V10.5708H3.46695C4.14721 10.5708 4.78172 10.7659 5.31678 11.1069C5.73249 11.369 6.09052 11.7217 6.35706 12.1316C6.70713 12.6637 6.91001 13.3003 6.91001 13.9821C6.91001 14.6561 6.7131 15.2847 6.36899 15.8149C6.10444 16.2287 5.75039 16.5815 5.33468 16.8475C4.79763 17.1943 4.15517 17.3954 3.46695 17.3954H1.59724V18.1344C1.59724 19.774 2.93587 21.1003 4.59077 21.1003H5.33667V19.2478C5.33667 17.4407 6.76481 15.9607 8.56292 15.8484Z" fill="#6BA690"/>
<path id="Vector_13" d="M9.21934 10.5491V12.1296H8.77975C8.70616 12.1296 8.63256 12.1276 8.55897 12.1237C8.48736 12.1198 8.41377 12.1119 8.34216 12.104C8.19895 12.0843 8.05972 12.0587 7.92048 12.0232C7.91849 12.0212 7.91849 12.0212 7.9165 12.0232C7.87075 12.0133 7.82501 11.9995 7.77926 11.9838C7.73749 11.97 7.69771 11.9582 7.65594 11.9444C7.64997 11.9424 7.64201 11.9404 7.63604 11.9385C7.59427 11.9227 7.55251 11.9089 7.51074 11.8912C7.46698 11.8734 7.42322 11.8557 7.37946 11.836C7.33769 11.8163 7.29393 11.7966 7.25216 11.7769C6.11839 11.2172 5.33669 10.0564 5.33669 8.71834V6.86589H1.59726V6.86787H0.00402832V5.2854H3.46897C3.58831 5.2854 3.70368 5.29131 3.81705 5.3051C3.82103 5.30313 3.82302 5.30313 3.82501 5.3051C3.8807 5.31101 3.9364 5.3189 3.99209 5.32678C4.04977 5.33467 4.10547 5.34649 4.16315 5.35634C4.21884 5.36423 4.27454 5.37802 4.33023 5.39379C4.33222 5.39182 4.33222 5.39379 4.33421 5.39379C4.42571 5.41743 4.51521 5.44503 4.60472 5.47656C4.6087 5.47656 4.61069 5.47852 4.61466 5.47852C4.62859 5.48247 4.63853 5.48641 4.65246 5.49429C4.75191 5.52977 4.84739 5.57115 4.94286 5.61648C4.9906 5.63815 5.03634 5.6618 5.08408 5.68545C5.12386 5.70516 5.16166 5.72683 5.19945 5.74851C5.462 5.89828 5.70666 6.07761 5.92148 6.29045C6.54803 6.91122 6.9359 7.76847 6.9359 8.71834C6.9359 9.72734 7.76335 10.5491 8.78174 10.5491H9.21934Z" fill="#6BA690"/>
<path id="Vector_14" d="M15.6729 0.00585938V3.43486H16.4605V1.58635H20.1999V5.29126H18.3322C17.9782 5.29126 17.6361 5.34644 17.3138 5.44497V6.85008H21.7952V0.00585938H15.6729Z" fill="#6BA690"/>
<path id="Vector_15" d="M20.2 15.817H16.4606V15.815H15.6729C15.5874 15.815 15.5018 15.813 15.4183 15.8071C15.2293 15.7992 15.0443 15.7775 14.8633 15.7421V17.4014H21.7932V15.817H20.198H20.2Z" fill="#6BA690"/>
</g>
<path id="Vector_16" d="M5.33837 0.00390625H6.93559V1.58441H4.67999L5.33837 0.00390625Z" fill="#6BA690"/>
<path id="Vector_17" d="M15.3072 1.58441H10.6289V0.00390625H11.9119L15.3072 1.58441Z" fill="#6BA690"/>
<path id="Vector_18" d="M19.818 22.6825H15.3029V21.1021H15.7663L19.818 22.6825Z" fill="#6BA690"/>
<path id="Vector_19" d="M1.59724 8.22375V16.0001L0.00201416 18.1501V8.22375H1.59724Z" fill="#6BA690"/>
<path id="Vector_20" d="M21.7948 15.8147V17.3991H15.6649C15.3924 17.3991 15.1259 17.3814 14.8654 17.3479C13.7197 17.2001 12.6736 16.737 11.8203 16.0512C11.7268 15.9743 11.6314 15.8974 11.5419 15.8147C11.4742 15.7536 11.4086 15.6905 11.343 15.6255C11.2773 15.5605 11.2117 15.4935 11.15 15.4245C11.0725 15.3437 11.0009 15.2589 10.9332 15.1742C10.2272 14.3229 9.75579 13.2804 9.60463 12.1374C9.60463 12.1354 9.60463 12.1354 9.60463 12.1334C9.56883 11.8753 9.55292 11.6112 9.55292 11.3432C9.55292 11.0752 9.57082 10.8111 9.60463 10.5529V10.551C9.76971 9.29168 10.3246 8.15656 11.15 7.26384C11.2813 7.11801 11.4225 6.98203 11.5677 6.85196C12.5622 5.95924 13.853 5.38774 15.2751 5.30103C15.4044 5.29314 15.5337 5.28723 15.6649 5.28723H21.7928L21.7948 6.85H15.6749C15.5953 6.85 15.5177 6.85197 15.4382 6.85591C15.3825 6.85788 15.3288 6.86182 15.2751 6.8697H15.2691C14.1792 6.96232 13.2026 7.4412 12.4747 8.16444C11.8303 8.80098 11.3808 9.62867 11.2196 10.5529V10.5549C11.1779 10.7835 11.154 11.018 11.152 11.2584C11.15 11.2821 11.15 11.3077 11.15 11.3353C11.15 11.3609 11.15 11.3865 11.152 11.4121C11.154 11.6605 11.1779 11.9009 11.2236 12.1354C11.2216 12.1374 11.2236 12.1393 11.2236 12.1393C11.5558 13.9721 13.0137 15.4166 14.8654 15.7437C15.0444 15.7792 15.2313 15.8009 15.4203 15.8088C15.5038 15.8147 15.5893 15.8167 15.6749 15.8167H21.7948V15.8147Z" fill="#6BA690"/>
</g>
<path id="Vector_21" d="M15.6733 21.1021H8.31573V22.6806H15.6733V21.1021Z" fill="#6BA690"/>
</g>
</g>
</svg>
