<svg width="14" height="16" viewBox="0 0 14 16" fill="none" xmlns="http://www.w3.org/2000/svg">
<g id="logos:google-analytics" clip-path="url(#clip0_427_71)">
<path id="Vector" d="M14.0002 13.9681C14.0016 14.2493 13.945 14.5276 13.8341 14.7846C13.7232 15.0416 13.5605 15.2713 13.3569 15.4586C13.1533 15.6459 12.9134 15.7865 12.653 15.871C12.3927 15.9556 12.1179 15.9822 11.8468 15.949C10.86 15.7986 10.1369 14.914 10.161 13.8867V2.07584C10.1371 1.04744 10.862 0.162371 11.8501 0.0135824C12.1209 -0.0190799 12.3953 0.00786398 12.6553 0.0926319C12.9153 0.1774 13.1548 0.31806 13.358 0.505309C13.5613 0.692557 13.7236 0.922127 13.8343 1.17883C13.945 1.43554 14.0015 1.71353 14.0002 1.99443V13.9681Z" fill="white"/>
<path id="Vector_2" d="M1.91959 12.0109C2.97976 12.0109 3.83917 12.8963 3.83917 13.9884C3.83917 15.0806 2.97976 15.9659 1.91959 15.9659C0.859414 15.9659 0 15.0806 0 13.9885C0 12.8963 0.859414 12.0109 1.91959 12.0109ZM6.97041 6.01727C5.90527 6.07744 5.07877 6.99789 5.10355 8.09659V13.4084C5.10355 14.85 5.71927 15.7252 6.6214 15.9117C6.90108 15.9701 7.18988 15.9636 7.46684 15.8928C7.74381 15.8219 8.00198 15.6884 8.22265 15.502C8.44333 15.3156 8.62095 15.0809 8.74265 14.815C8.86435 14.5491 8.92707 14.2586 8.92626 13.9646V8.00504C8.92672 7.74158 8.87626 7.48066 8.7778 7.23751C8.67935 6.99435 8.53488 6.77383 8.35282 6.5888C8.17076 6.40378 7.95475 6.25795 7.71741 6.15983C7.48006 6.06171 7.22613 6.01321 6.97041 6.01727Z" fill="white"/>
</g>
<defs>
<clipPath id="clip0_427_71">
<rect width="14" height="16" fill="white"/>
</clipPath>
</defs>
</svg>
