<svg width="164" height="31" viewBox="0 0 164 31" fill="none" xmlns="http://www.w3.org/2000/svg">
<g id="Group">
<g id="Group_2">
<path id="Vector" d="M42.4104 23.6554C41.1626 22.9336 40.1894 21.9398 39.4908 20.6712C38.7922 19.4027 38.4442 17.9537 38.4442 16.3242C38.4442 14.6947 38.7922 13.2484 39.4908 11.9799C40.1867 10.7113 41.1599 9.7229 42.4104 9.01186C43.6581 8.30083 45.0853 7.94531 46.6864 7.94531C48.6002 7.94531 50.2856 8.46512 51.7427 9.50743C53.1998 10.547 54.1566 11.9341 54.6133 13.6659H52.773C52.2537 12.4081 51.4573 11.4278 50.3862 10.7275C49.3151 10.0272 48.081 9.67711 46.6864 9.67711C45.4387 9.67711 44.3241 9.95452 43.3455 10.512C42.3669 11.0696 41.6085 11.8533 41.0675 12.8633C40.5265 13.8733 40.2547 15.0287 40.2547 16.3269C40.2547 17.6251 40.5238 18.7805 41.0675 19.7905C41.6085 20.8005 42.3669 21.5896 43.3455 22.1552C44.3241 22.7235 45.436 23.0063 46.6864 23.0063C48.1653 23.0063 49.4483 22.6239 50.5411 21.8616C51.6339 21.0994 52.4087 20.0571 52.8681 18.7374H54.771C54.23 20.6146 53.2405 22.0825 51.8052 23.1437C50.3699 24.2048 48.6627 24.7354 46.6864 24.7354C45.0826 24.7354 43.6581 24.3772 42.4104 23.6554Z" fill="#090F1D"/>
<path id="Vector_2" d="M58.8421 23.2996C57.7493 22.4432 57.2029 21.285 57.2029 19.8199C57.2029 18.3978 57.7031 17.2693 58.7007 16.4344C59.6984 15.5994 61.0304 15.182 62.6968 15.182H69.8136V14.0373C69.8136 12.6961 69.3596 11.6241 68.4544 10.8215C67.5492 10.0189 66.3476 9.61491 64.8498 9.61491C63.6428 9.61491 62.5908 9.8977 61.6964 10.466C60.8021 11.0343 60.1877 11.8019 59.8561 12.7715H58.0157C58.4099 11.2875 59.2172 10.1105 60.4351 9.24592C61.6529 8.37868 63.1127 7.94775 64.8199 7.94775C66.1519 7.94775 67.3317 8.20092 68.362 8.70457C69.3922 9.21092 70.1915 9.91656 70.765 10.8215C71.3386 11.7292 71.624 12.7688 71.624 13.9458V24.3365H70.1262L69.9386 21.584C69.2319 22.5536 68.3049 23.2942 67.1604 23.8113C66.016 24.3258 64.7247 24.5843 63.2894 24.5843C61.4191 24.5816 59.9349 24.1534 58.8421 23.2996ZM60.185 22.1065C60.9652 22.6829 62.0226 22.9737 63.3519 22.9737C64.5806 22.9737 65.687 22.7367 66.6765 22.2627C67.666 21.7887 68.4408 21.1288 69.0008 20.2831C69.5635 19.4374 69.8435 18.4894 69.8435 17.439V16.7576H62.7566C61.6529 16.7576 60.7531 17.035 60.0572 17.5925C59.3586 18.15 59.0106 18.8826 59.0106 19.7875C59.0161 20.7571 59.4048 21.5301 60.185 22.1065Z" fill="#090F1D"/>
<path id="Vector_3" d="M76.4644 8.34644H77.9948L78.1824 11.9339C78.7233 10.7192 79.4791 9.81699 80.4468 9.22715C81.4146 8.64001 82.6379 8.34644 84.114 8.34644H85.4568V10.0163H84.0514C82.241 10.0163 80.8247 10.5873 79.8053 11.7319C78.7859 12.8766 78.2748 14.6245 78.2748 16.9731V24.3339H76.4644V8.34644Z" fill="#090F1D"/>
<path id="Vector_4" d="M88.7617 1.44885H90.5722V24.3339H88.7617V1.44885Z" fill="#090F1D"/>
<path id="Vector_5" d="M94.7555 28.8183H96.0984C96.8894 28.8183 97.5092 28.751 97.955 28.6163C98.4009 28.4816 98.7706 28.2446 99.0642 27.9053C99.355 27.5659 99.6459 27.0434 99.9367 26.3431L100.842 24.0861L93.1625 8.34375H95.1904L98.9989 16.2298L101.777 21.9207L104.088 16.2298L107.366 8.34375H109.269L101.56 27.0246C101.185 27.9511 100.774 28.6675 100.325 29.1738C99.8769 29.6802 99.3414 30.0303 98.7189 30.2242C98.0937 30.4208 97.2836 30.5178 96.2832 30.5178H94.7527V28.8183H94.7555Z" fill="#090F1D"/>
<path id="Vector_6" d="M116.613 22.9281C115.719 21.9908 115.27 20.6146 115.27 18.7993V9.98406H111.742V8.34652H113.802C114.406 8.34652 114.822 8.24956 115.05 8.05295C115.278 7.85634 115.425 7.46043 115.488 6.86251L115.643 4.41968H117.078V8.34652H122.664V9.98406H117.078V18.7373C117.078 20.057 117.363 21.032 117.937 21.6596C118.511 22.2898 119.399 22.6022 120.606 22.6022H122.884V24.334H120.544C118.818 24.334 117.507 23.8654 116.613 22.9281Z" fill="#090F1D"/>
<path id="Vector_7" d="M126.178 2.65539C126.48 2.34566 126.88 2.19214 127.38 2.19214C127.88 2.19214 128.28 2.34835 128.582 2.65539C128.883 2.96243 129.036 3.34488 129.036 3.80005C129.036 4.27407 128.883 4.6673 128.582 4.97433C128.28 5.28137 127.88 5.43758 127.38 5.43758C126.88 5.43758 126.48 5.28406 126.178 4.97433C125.877 4.6646 125.724 4.27407 125.724 3.80005C125.727 3.34488 125.877 2.96243 126.178 2.65539ZM126.475 8.34636H128.285V24.3365H126.475V8.34636Z" fill="#090F1D"/>
<path id="Vector_8" d="M136.027 23.6554C134.779 22.9336 133.806 21.9398 133.107 20.6712C132.409 19.4027 132.061 17.9537 132.061 16.3242C132.061 14.6947 132.409 13.2484 133.107 11.9799C133.803 10.7113 134.776 9.7229 136.027 9.01186C137.275 8.30083 138.702 7.94531 140.303 7.94531C142.217 7.94531 143.902 8.46512 145.359 9.50743C146.816 10.547 147.773 11.9341 148.23 13.6659H146.389C145.87 12.4081 145.074 11.4278 144.003 10.7275C142.932 10.0272 141.697 9.67711 140.303 9.67711C139.055 9.67711 137.941 9.95452 136.962 10.512C135.983 11.0696 135.225 11.8533 134.684 12.8633C134.143 13.8733 133.871 15.0287 133.871 16.3269C133.871 17.6251 134.14 18.7805 134.684 19.7905C135.225 20.8005 135.983 21.5896 136.962 22.1552C137.941 22.7235 139.052 23.0063 140.303 23.0063C141.782 23.0063 143.065 22.6239 144.158 21.8616C145.25 21.0994 146.025 20.0571 146.485 18.7374H148.387C147.846 20.6146 146.857 22.0825 145.422 23.1437C143.986 24.2048 142.279 24.7354 140.303 24.7354C138.702 24.7354 137.275 24.3772 136.027 23.6554Z" fill="#090F1D"/>
<path id="Vector_9" d="M152.741 23.3295C151.523 22.3922 150.884 21.1183 150.822 19.5104H152.602C152.706 20.6443 153.19 21.525 154.054 22.1552C154.919 22.7855 156.12 23.0979 157.659 23.0979C159.075 23.0979 160.187 22.8474 161 22.3411C161.812 21.8347 162.217 21.1398 162.217 20.2537C162.217 19.408 161.818 18.7239 161.016 18.1961C160.214 17.6709 158.961 17.2642 157.254 16.9733C155.152 16.6232 153.606 16.071 152.619 15.3196C151.629 14.5655 151.137 13.5716 151.137 12.3354C151.137 10.9753 151.684 9.90335 152.776 9.11959C153.869 8.33584 155.362 7.94531 157.256 7.94531C159.17 7.94531 160.695 8.37355 161.829 9.23002C162.962 10.0865 163.593 11.2769 163.718 12.8014H161.908C161.823 11.751 161.383 10.9457 160.581 10.3881C159.779 9.83063 158.673 9.55322 157.256 9.55322C155.924 9.55322 154.872 9.80639 154.103 10.31C153.334 10.8164 152.948 11.5005 152.948 12.3677C152.948 13.1515 153.323 13.7844 154.073 14.2692C154.823 14.754 156.09 15.1607 157.882 15.492C161.959 16.2542 164.001 17.854 164.001 20.2861C164.001 21.6273 163.424 22.7047 162.269 23.518C161.114 24.3314 159.57 24.7381 157.634 24.7381C155.587 24.7354 153.959 24.2695 152.741 23.3295Z" fill="#090F1D"/>
</g>
<g id="Group_3">
<g id="Group_4">
<g id="Group_5">
<path id="Vector_10" d="M13.6809 30.9974V26.3084C13.6809 25.3872 13.95 24.5281 14.4202 23.8036C14.4257 23.7955 14.4311 23.7847 14.4393 23.7766H9.47303V28.8401H9.47575V30.9974H7.29028V26.1872C7.29028 23.6608 9.35615 21.6139 11.9059 21.6139H16.9346L16.9156 21.8806C17.3804 21.7297 17.8751 21.6462 18.3889 21.6462C19.0739 21.6462 19.7263 21.7917 20.3188 22.0556C20.5281 22.1472 20.7266 22.2576 20.9169 22.3788C21.485 22.737 21.9742 23.2191 22.3385 23.7793C22.8169 24.5065 23.0942 25.3765 23.0942 26.3084V28.8401H28.2045V23.7766H25.652C23.983 23.7766 22.5152 22.9121 21.6834 21.6139C21.6807 21.6112 21.678 21.6058 21.6752 21.6031C21.7894 21.6112 21.9063 21.6139 22.0232 21.6139H30.3845V31.0001H20.9141V26.3084C20.9141 24.8755 19.6882 23.7147 18.2176 23.8117C16.8748 23.9005 15.8636 25.0641 15.8636 26.3972V31.0001" fill="#6BA690"/>
<path id="Vector_11" d="M23.0997 0.00538366V9.38888H20.8761V7.22885H20.9169V2.16542H16.7063V4.69444C16.7063 5.61555 16.4372 6.47472 15.967 7.19922C15.6054 7.76482 15.1189 8.24961 14.5508 8.61052C13.8168 9.08454 12.9389 9.35926 12.0011 9.35926C11.0714 9.35926 10.2043 9.09262 9.47309 8.62667C8.90226 8.26846 8.41569 7.78905 8.05145 7.22615C7.57304 6.49896 7.29306 5.62632 7.29306 4.69444V2.16542C5.88229 2.16542 4.60743 2.73101 3.68051 3.64943C2.7563 4.56516 2.18275 5.82832 2.18275 7.22615V7.22885H4.73791C4.901 7.22885 5.05866 7.23692 5.2136 7.25308C5.21904 7.25039 5.22175 7.25039 5.22447 7.25308C5.30058 7.26116 5.37669 7.27194 5.4528 7.28272C5.53163 7.29349 5.60774 7.30965 5.68657 7.32311C5.76268 7.33389 5.8388 7.35274 5.91491 7.37429C5.91762 7.37159 5.91762 7.37429 5.92034 7.37429C5.99645 7.39583 6.06713 7.41468 6.1378 7.43892C6.20848 7.46316 6.28187 7.48741 6.35254 7.50895C6.43409 7.53858 6.51564 7.5709 6.59447 7.60322C6.64611 7.62746 6.69504 7.65169 6.74669 7.67324C6.81193 7.70287 6.87444 7.73519 6.93968 7.76751C6.99405 7.79713 7.04569 7.82676 7.09734 7.85638C7.18433 7.90756 7.27131 7.95604 7.35557 8.0126C7.36101 8.01529 7.36645 8.02068 7.3746 8.02338C7.42625 8.0557 7.47518 8.0907 7.52411 8.12841C8.68752 8.9768 9.44047 10.345 9.44047 11.8856V14.4173H14.2137V16.58H11.9956C11.895 16.58 11.789 16.5773 11.6912 16.5692C11.5933 16.5639 11.4927 16.5531 11.3949 16.5423C11.1992 16.5181 11.0089 16.4831 10.8186 16.4319C10.8159 16.4292 10.8159 16.4319 10.8159 16.4319C10.8159 16.4319 10.8159 16.4292 10.8132 16.4319C10.7507 16.4184 10.6881 16.3996 10.6256 16.378C10.5685 16.3592 10.5142 16.343 10.4571 16.3242C10.4489 16.3215 10.4381 16.3188 10.4299 16.3161C10.3728 16.2945 10.3157 16.2757 10.2587 16.2514C10.1989 16.2272 10.1391 16.203 10.0793 16.176C10.0222 16.1491 9.96237 16.1222 9.90529 16.0952C9.43503 15.869 9.0137 15.5673 8.64674 15.2037C7.79049 14.3554 7.26044 13.1811 7.26044 11.8856C7.26044 10.5039 6.13236 9.38349 4.73518 9.38349H0V6.98645C0 3.12963 3.15588 0 7.05113 0H9.47309V4.68906C9.47309 6.12459 10.699 7.28002 12.1696 7.18575C13.507 7.09957 14.5209 5.93605 14.5209 4.60825V0.00269594H23.0997V0.00538366Z" fill="#6BA690"/>
<path id="Vector_12" d="M11.7028 21.6597V23.8224C10.4497 23.9705 9.47647 25.0263 9.47647 26.3056V30.9974H6.08933C2.72937 30.9974 0.00280762 28.296 0.00280762 24.9671V21.6112H4.73828C6.18447 21.6112 7.35611 20.3965 7.25824 18.9394C7.16853 17.6089 5.99418 16.607 4.64857 16.607H0.00280762V11.2393H2.18297V14.447H4.73828C5.66798 14.447 6.53515 14.7136 7.2664 15.1796C7.83455 15.5378 8.32386 16.0199 8.68813 16.5801C9.16657 17.3073 9.44385 18.1772 9.44385 19.1091C9.44385 20.0302 9.17472 20.8894 8.70444 21.6139C8.34289 22.1795 7.85901 22.6616 7.29087 23.0252C6.5569 23.4992 5.67885 23.7739 4.73828 23.7739H2.18297V24.7839C2.18297 27.0248 4.01246 28.8374 6.27418 28.8374H7.29358V26.3056C7.29358 23.8359 9.2454 21.8132 11.7028 21.6597Z" fill="#6BA690"/>
<path id="Vector_13" d="M12.5999 14.4173V16.5774H11.9991C11.8985 16.5774 11.798 16.5747 11.6974 16.5693C11.5995 16.5639 11.4989 16.5531 11.4011 16.5424C11.2053 16.5154 11.0151 16.4804 10.8248 16.4319C10.822 16.4292 10.822 16.4292 10.8193 16.4319C10.7568 16.4185 10.6943 16.3996 10.6318 16.3781C10.5747 16.3592 10.5203 16.3431 10.4632 16.3242C10.4551 16.3215 10.4442 16.3188 10.436 16.3161C10.3789 16.2946 10.3219 16.2757 10.2648 16.2515C10.205 16.2272 10.1452 16.203 10.0854 16.1761C10.0283 16.1491 9.96847 16.1222 9.91138 16.0953C8.36189 15.3304 7.29355 13.744 7.29355 11.9153V9.38354H2.18294V9.38624H0.00549316V7.22351H4.74096C4.90407 7.22351 5.06174 7.23158 5.21669 7.25044C5.22212 7.24774 5.22484 7.24774 5.22756 7.25044C5.30368 7.25852 5.37979 7.26929 5.45591 7.28007C5.53474 7.29084 5.61086 7.307 5.68969 7.32047C5.76581 7.33124 5.84192 7.35009 5.91804 7.37164C5.92075 7.36895 5.92076 7.37164 5.92347 7.37164C6.04852 7.40396 6.17085 7.44167 6.29318 7.48476C6.29861 7.48476 6.30133 7.48745 6.30677 7.48745C6.3258 7.49284 6.33939 7.49823 6.35842 7.509C6.49434 7.55748 6.62482 7.61404 6.75531 7.67599C6.82055 7.70561 6.88307 7.73793 6.94831 7.77025C7.00268 7.79719 7.05433 7.82681 7.10598 7.85643C7.46481 8.06112 7.79918 8.30622 8.09276 8.59709C8.94906 9.44549 9.47916 10.6171 9.47916 11.9153C9.47916 13.2942 10.61 14.4173 12.0018 14.4173H12.5999Z" fill="#6BA690"/>
<path id="Vector_14" d="M21.4198 0.00805664V4.69442H22.4963V2.16809H27.6069V7.23152H25.0543C24.5704 7.23152 24.1029 7.30693 23.6625 7.4416V9.36193H29.7871V0.00805664H21.4198Z" fill="#6BA690"/>
<path id="Vector_15" d="M27.607 21.6168H22.4964V21.6141H21.4199C21.303 21.6141 21.1861 21.6114 21.0719 21.6033C20.8137 21.5925 20.5609 21.5629 20.3135 21.5144V23.7822H29.7844V21.6168H27.6043H27.607Z" fill="#6BA690"/>
</g>
<path id="Vector_16" d="M7.29591 0.00537109H9.4788V2.16541H6.39612L7.29591 0.00537109Z" fill="#6BA690"/>
<path id="Vector_17" d="M20.9201 2.16541H14.5264V0.00537109H16.2797L20.9201 2.16541Z" fill="#6BA690"/>
<path id="Vector_18" d="M27.085 30.9999H20.9142V28.8398H21.5476L27.085 30.9999Z" fill="#6BA690"/>
<path id="Vector_19" d="M2.18297 11.2393V21.8671L0.00280762 24.8055V11.2393H2.18297Z" fill="#6BA690"/>
<path id="Vector_20" d="M29.7866 21.6137V23.7792H21.409C21.0366 23.7792 20.6723 23.7549 20.3162 23.7091C18.7505 23.5071 17.3207 22.8742 16.1546 21.9369C16.0268 21.8319 15.8964 21.7269 15.774 21.6137C15.6816 21.5303 15.5919 21.4441 15.5022 21.3552C15.4125 21.2663 15.3228 21.1747 15.2385 21.0805C15.1325 20.97 15.0347 20.8542 14.9422 20.7384C13.9773 19.5749 13.333 18.1501 13.1265 16.588C13.1265 16.5853 13.1265 16.5853 13.1265 16.5826C13.0775 16.2298 13.0558 15.8689 13.0558 15.5026C13.0558 15.1363 13.0803 14.7754 13.1265 14.4226V14.4199C13.3521 12.6989 14.1105 11.1475 15.2385 9.92746C15.4179 9.72816 15.6109 9.54232 15.8094 9.36456C17.1685 8.14449 18.9326 7.36344 20.8762 7.24493C21.0529 7.23416 21.2296 7.22607 21.409 7.22607H29.7839L29.7866 9.36188H21.4225C21.3138 9.36188 21.2078 9.36457 21.0991 9.36996C21.023 9.37265 20.9496 9.37803 20.8762 9.3888H20.868C19.3784 9.51539 18.0438 10.1699 17.0489 11.1583C16.1682 12.0282 15.5539 13.1594 15.3337 14.4226V14.4253C15.2766 14.7377 15.244 15.0582 15.2413 15.3868C15.2385 15.4191 15.2385 15.4541 15.2385 15.4918C15.2385 15.5269 15.2385 15.5619 15.2413 15.5969C15.244 15.9362 15.2766 16.2648 15.3391 16.5853C15.3364 16.588 15.3391 16.5907 15.3391 16.5907C15.7931 19.0955 17.7855 21.0697 20.3162 21.5168C20.5609 21.5653 20.8164 21.5949 21.0746 21.6057C21.1888 21.6137 21.3057 21.6164 21.4225 21.6164H29.7866V21.6137Z" fill="#6BA690"/>
</g>
<path id="Vector_21" d="M21.4204 28.8398H11.365V30.9972H21.4204V28.8398Z" fill="#6BA690"/>
</g>
</g>
</svg>
