<svg width="50" height="50" viewBox="0 0 50 50" fill="none" xmlns="http://www.w3.org/2000/svg">
<g id="Group 13">
<circle id="Ellipse 1" cx="25" cy="25" r="25" fill="#D18EE2"/>
<g id="Group">
<g id="Group_2">
<g id="Group_3">
<path id="Vector" d="M24.1503 35.9979V32.5189C24.1503 31.8355 24.35 31.1981 24.6989 30.6605C24.7029 30.6545 24.707 30.6465 24.713 30.6405H21.0284V34.3973H21.0304V35.9979H19.4089V32.429C19.4089 30.5546 20.9417 29.0359 22.8334 29.0359H26.5644L26.5503 29.2338C26.8952 29.1219 27.2622 29.0599 27.6434 29.0599C28.1516 29.0599 28.6356 29.1678 29.0753 29.3637C29.2306 29.4316 29.3778 29.5135 29.519 29.6035C29.9405 29.8692 30.3035 30.2269 30.5737 30.6425C30.9287 31.1821 31.1344 31.8275 31.1344 32.5189V34.3973H34.9259V30.6405H33.0322C31.7939 30.6405 30.7048 29.9991 30.0877 29.0359C30.0857 29.0339 30.0837 29.03 30.0816 29.028C30.1664 29.0339 30.2531 29.0359 30.3398 29.0359H36.5434V35.9999H29.517V32.5189C29.517 31.4558 28.6074 30.5946 27.5163 30.6665C26.52 30.7325 25.7698 31.5957 25.7698 32.5849V35.9999" fill="white"/>
<path id="Vector_2" d="M31.1385 13.004V19.9659H29.4888V18.3633H29.519V14.6066H26.395V16.483C26.395 17.1664 26.1954 17.8038 25.8465 18.3414C25.5782 18.761 25.2172 19.1207 24.7957 19.3884C24.2512 19.7401 23.5998 19.944 22.904 19.944C22.2143 19.944 21.5709 19.7461 21.0284 19.4004C20.6049 19.1347 20.2439 18.779 19.9737 18.3613C19.6187 17.8218 19.411 17.1744 19.411 16.483V14.6066C18.3643 14.6066 17.4184 15.0262 16.7307 15.7076C16.045 16.3871 15.6195 17.3242 15.6195 18.3613V18.3633H17.5152C17.6362 18.3633 17.7532 18.3693 17.8682 18.3813C17.8722 18.3793 17.8742 18.3793 17.8762 18.3813C17.9327 18.3873 17.9892 18.3953 18.0456 18.4033C18.1041 18.4113 18.1606 18.4233 18.2191 18.4333C18.2755 18.4413 18.332 18.4553 18.3885 18.4712C18.3905 18.4692 18.3905 18.4712 18.3925 18.4712C18.449 18.4872 18.5014 18.5012 18.5539 18.5192C18.6063 18.5372 18.6607 18.5552 18.7132 18.5712C18.7737 18.5931 18.8342 18.6171 18.8927 18.6411C18.931 18.6591 18.9673 18.6771 19.0056 18.6931C19.054 18.715 19.1004 18.739 19.1488 18.763C19.1891 18.785 19.2275 18.807 19.2658 18.8289C19.3303 18.8669 19.3948 18.9029 19.4574 18.9448C19.4614 18.9468 19.4654 18.9508 19.4715 18.9528C19.5098 18.9768 19.5461 19.0028 19.5824 19.0308C20.4456 19.6602 21.0042 20.6753 21.0042 21.8183V23.6967H24.5457V25.3013H22.9C22.8254 25.3013 22.7467 25.2993 22.6741 25.2933C22.6015 25.2893 22.5269 25.2813 22.4543 25.2733C22.3091 25.2553 22.1679 25.2294 22.0267 25.1914C22.0247 25.1894 22.0247 25.1914 22.0247 25.1914C22.0247 25.1914 22.0247 25.1894 22.0227 25.1914C21.9763 25.1814 21.9299 25.1674 21.8835 25.1514C21.8412 25.1375 21.8008 25.1255 21.7585 25.1115C21.7524 25.1095 21.7444 25.1075 21.7383 25.1055C21.696 25.0895 21.6536 25.0755 21.6113 25.0575C21.5669 25.0395 21.5225 25.0216 21.4782 25.0016C21.4358 24.9816 21.3914 24.9616 21.3491 24.9416C21.0002 24.7738 20.6876 24.55 20.4153 24.2802C19.78 23.6507 19.3868 22.7795 19.3868 21.8183C19.3868 20.7932 18.5498 19.9619 17.5132 19.9619H14V18.1835C14 15.322 16.3415 13 19.2315 13H21.0284V16.479C21.0284 17.5441 21.938 18.4013 23.0291 18.3314C24.0213 18.2674 24.7736 17.4042 24.7736 16.419V13.002H31.1385V13.004Z" fill="white"/>
<path id="Vector_3" d="M22.6828 29.07V30.6746C21.753 30.7845 21.0309 31.5679 21.0309 32.517V35.998H18.5179C16.025 35.998 14.0021 33.9937 14.0021 31.5239V29.0341H17.5155C18.5885 29.0341 19.4577 28.1328 19.3851 27.0518C19.3186 26.0646 18.4473 25.3213 17.4489 25.3213H14.0021V21.3387H15.6196V23.7187H17.5155C18.2053 23.7187 18.8487 23.9165 19.3912 24.2622C19.8127 24.528 20.1758 24.8857 20.446 25.3013C20.801 25.8408 21.0067 26.4863 21.0067 27.1777C21.0067 27.8611 20.807 28.4985 20.4581 29.0361C20.1899 29.4557 19.8309 29.8134 19.4093 30.0831C18.8648 30.4348 18.2133 30.6387 17.5155 30.6387H15.6196V31.388C15.6196 33.0506 16.977 34.3954 18.655 34.3954H19.4114V32.517C19.4114 30.6846 20.8595 29.1839 22.6828 29.07Z" fill="white"/>
<path id="Vector_4" d="M23.3483 23.6966V25.2992H22.9025C22.8279 25.2992 22.7533 25.2972 22.6787 25.2932C22.606 25.2892 22.5314 25.2812 22.4588 25.2732C22.3136 25.2533 22.1724 25.2273 22.0312 25.1913C22.0292 25.1893 22.0292 25.1893 22.0272 25.1913C21.9808 25.1813 21.9344 25.1673 21.888 25.1513C21.8457 25.1374 21.8053 25.1254 21.763 25.1114C21.7569 25.1094 21.7489 25.1074 21.7428 25.1054C21.7005 25.0894 21.6581 25.0754 21.6158 25.0574C21.5714 25.0394 21.527 25.0215 21.4826 25.0015C21.4403 24.9815 21.3959 24.9615 21.3536 24.9415C20.2039 24.374 19.4113 23.197 19.4113 21.8402V19.9619H15.6196V19.9639H14.004V18.3593H17.5174C17.6385 18.3593 17.7554 18.3652 17.8704 18.3792C17.8744 18.3772 17.8765 18.3772 17.8785 18.3792C17.9349 18.3852 17.9914 18.3932 18.0479 18.4012C18.1064 18.4092 18.1628 18.4212 18.2213 18.4312C18.2778 18.4392 18.3343 18.4532 18.3908 18.4692C18.3928 18.4672 18.3928 18.4692 18.3948 18.4692C18.4876 18.4931 18.5783 18.5211 18.6691 18.5531C18.6731 18.5531 18.6751 18.5551 18.6792 18.5551C18.6933 18.5591 18.7034 18.5631 18.7175 18.5711C18.8183 18.607 18.9151 18.649 19.012 18.695C19.0604 18.7169 19.1067 18.7409 19.1552 18.7649C19.1955 18.7849 19.2338 18.8069 19.2721 18.8288C19.5384 18.9807 19.7864 19.1626 20.0043 19.3784C20.6396 20.0078 21.0329 20.8771 21.0329 21.8402C21.0329 22.8633 21.8719 23.6966 22.9045 23.6966H23.3483Z" fill="white"/>
<path id="Vector_5" d="M29.8922 13.006V16.483H30.6908V14.6086H34.4826V18.3653H32.5887C32.2297 18.3653 31.8828 18.4213 31.5561 18.5212V19.946H36.1001V13.006H29.8922Z" fill="white"/>
<path id="Vector_6" d="M34.4826 29.0382H30.6908V29.0362H29.8922C29.8054 29.0362 29.7187 29.0342 29.634 29.0282C29.4424 29.0202 29.2548 28.9982 29.0713 28.9623V30.6448H36.0981V29.0382H34.4806H34.4826Z" fill="white"/>
</g>
<path id="Vector_7" d="M19.4131 13.004H21.0326V14.6066H18.7455L19.4131 13.004Z" fill="white"/>
<path id="Vector_8" d="M29.5213 14.6066H24.7776V13.004H26.0785L29.5213 14.6066Z" fill="white"/>
<path id="Vector_9" d="M34.0954 35.9999H29.517V34.3973H29.987L34.0954 35.9999Z" fill="white"/>
<path id="Vector_10" d="M15.6196 21.3387V29.2239L14.0021 31.404V21.3387H15.6196Z" fill="white"/>
<path id="Vector_11" d="M36.0997 29.0359V30.6425H29.884C29.6077 30.6425 29.3375 30.6245 29.0733 30.5906C27.9116 30.4407 26.8508 29.9711 25.9856 29.2757C25.8908 29.1978 25.794 29.1199 25.7033 29.0359C25.6347 28.974 25.5682 28.91 25.5016 28.8441C25.4351 28.7782 25.3685 28.7102 25.306 28.6403C25.2273 28.5584 25.1547 28.4724 25.0862 28.3865C24.3702 27.5232 23.8922 26.4662 23.739 25.3072C23.739 25.3052 23.739 25.3052 23.739 25.3032C23.7027 25.0414 23.6865 24.7736 23.6865 24.5019C23.6865 24.2301 23.7047 23.9623 23.739 23.7006V23.6986C23.9064 22.4217 24.469 21.2707 25.306 20.3655C25.4391 20.2176 25.5823 20.0797 25.7295 19.9478C26.7379 19.0426 28.0468 18.4631 29.4888 18.3752C29.6198 18.3672 29.7509 18.3612 29.884 18.3612H36.0977L36.0997 19.9458H29.8941C29.8135 19.9458 29.7348 19.9478 29.6541 19.9518C29.5977 19.9538 29.5432 19.9578 29.4888 19.9658H29.4827C28.3775 20.0597 27.3873 20.5453 26.6492 21.2787C25.9957 21.9241 25.5399 22.7634 25.3766 23.7006V23.7026C25.3342 23.9344 25.31 24.1722 25.308 24.4159C25.306 24.4399 25.306 24.4659 25.306 24.4939C25.306 24.5199 25.306 24.5458 25.308 24.5718C25.31 24.8236 25.3342 25.0674 25.3806 25.3052C25.3786 25.3072 25.3806 25.3092 25.3806 25.3092C25.7174 27.1676 27.1957 28.6323 29.0733 28.964C29.2548 29 29.4444 29.0219 29.636 29.0299C29.7207 29.0359 29.8074 29.0379 29.8941 29.0379H36.0997V29.0359Z" fill="white"/>
</g>
<path id="Vector_12" d="M29.8926 34.3973H22.4321V35.9979H29.8926V34.3973Z" fill="white"/>
</g>
</g>
</svg>
