<svg width="24" height="24" viewBox="0 0 24 24" fill="none" xmlns="http://www.w3.org/2000/svg">
<g id="fi-rr-paper-plane 1" clip-path="url(#clip0_427_122)">
<path id="Vector" d="M23.119 0.882014C22.7605 0.519141 22.3144 0.254869 21.8239 0.11473C21.3334 -0.0254085 20.8151 -0.0366769 20.319 0.0820139L4.31899 3.45201C3.39757 3.57838 2.52973 3.95949 1.8132 4.55243C1.09667 5.14536 0.559908 5.92657 0.26337 6.80808C-0.0331682 7.68959 -0.0777078 8.63638 0.134767 9.54183C0.347242 10.4473 0.808292 11.2754 1.46599 11.933L3.184 13.65C3.27698 13.743 3.35072 13.8534 3.401 13.9748C3.45127 14.0963 3.4771 14.2265 3.47699 14.358V17.526C3.4792 17.9714 3.58174 18.4107 3.77699 18.811L3.769 18.818L3.795 18.844C4.08801 19.4331 4.56658 19.9096 5.157 20.2L5.183 20.226L5.19 20.218C5.59036 20.4133 6.02956 20.5158 6.475 20.518H9.64299C9.90805 20.5178 10.1623 20.6228 10.35 20.81L12.067 22.527C12.5275 22.9926 13.0756 23.3625 13.6798 23.6153C14.2839 23.8681 14.9321 23.9989 15.587 24C16.1327 23.9993 16.6748 23.9102 17.192 23.736C18.0654 23.4492 18.8414 22.924 19.4322 22.2197C20.0231 21.5154 20.4054 20.66 20.536 19.75L23.911 3.71501C24.0358 3.21465 24.0285 2.69043 23.8896 2.19378C23.7508 1.69712 23.4852 1.24508 23.119 0.882014ZM4.6 12.238L2.881 10.521C2.48071 10.1304 2.20017 9.63366 2.07228 9.08917C1.9444 8.54468 1.97448 7.97501 2.15899 7.44701C2.33789 6.90534 2.6686 6.42644 3.11179 6.06728C3.55498 5.70811 4.09201 5.4838 4.659 5.42101L20.5 2.08601L5.475 17.113V14.358C5.47651 13.9644 5.39996 13.5743 5.24977 13.2104C5.09958 12.8465 4.87873 12.516 4.6 12.238ZM18.571 19.408C18.4942 19.9604 18.265 20.4804 17.9091 20.9097C17.5532 21.339 17.0847 21.6606 16.5561 21.8384C16.0276 22.0162 15.4599 22.0431 14.9169 21.9163C14.3739 21.7894 13.877 21.5136 13.482 21.12L11.762 19.4C11.4844 19.1209 11.1541 18.8995 10.7904 18.7488C10.4267 18.5981 10.0367 18.521 9.64299 18.522H6.888L21.915 3.50001L18.571 19.408Z" fill="#D18EE2"/>
</g>
<defs>
<clipPath id="clip0_427_122">
<rect width="24" height="24" fill="white"/>
</clipPath>
</defs>
</svg>
